<?xml version="1.0" encoding="UTF-8" standalone="no"?>
<!DOCTYPE svg PUBLIC "-//W3C//DTD SVG 1.1//EN"
 "http://www.w3.org/Graphics/SVG/1.1/DTD/svg11.dtd">
<!-- Generated by graphviz version 2.36.0 (20140111.2315)
 -->
<!-- Title: G Pages: 1 -->
<svg width="288pt" height="636pt"
 viewBox="0.00 0.00 288.00 636.00" xmlns="http://www.w3.org/2000/svg" xmlns:xlink="http://www.w3.org/1999/xlink">
<g id="graph0" class="graph" transform="scale(1 1) rotate(0) translate(4 632)">
<title>G</title>
<polygon fill="white" stroke="none" points="-4,4 -4,-632 284,-632 284,4 -4,4"/>
<g id="clust1" class="cluster"><title>cluster_Global</title>
<path fill="none" stroke="gray" d="M20,-8C20,-8 260,-8 260,-8 266,-8 272,-14 272,-20 272,-20 272,-608 272,-608 272,-614 266,-620 260,-620 260,-620 20,-620 20,-620 14,-620 8,-614 8,-608 8,-608 8,-20 8,-20 8,-14 14,-8 20,-8"/>
<text text-anchor="middle" x="140" y="-607.2" font-family="Times,serif" font-size="11.00" fill="gray">Global</text>
</g>
<!-- \\Model -->
<g id="node1" class="node"><title>\\Model</title>
<polygon fill="none" stroke="black" points="74,-376 20,-376 20,-340 74,-340 74,-376"/>
<text text-anchor="middle" x="47" y="-355.2" font-family="Times,serif" font-size="11.00">Model</text>
</g>
<!-- \\WebApp -->
<g id="node2" class="node"><title>\\WebApp</title>
<polygon fill="none" stroke="black" points="235,-592 179,-592 179,-556 235,-556 235,-592"/>
<text text-anchor="middle" x="207" y="-571.2" font-family="Times,serif" font-size="11.00">WebApp</text>
</g>
<!-- \\Controller -->
<g id="node3" class="node"><title>\\Controller</title>
<polygon fill="none" stroke="black" points="78,-160 16,-160 16,-124 78,-124 78,-160"/>
<text text-anchor="middle" x="47" y="-139.2" font-family="Times,serif" font-size="11.00">Controller</text>
</g>
<!-- \\Router -->
<g id="node4" class="node"><title>\\Router</title>
<polygon fill="none" stroke="black" points="234,-538 180,-538 180,-502 234,-502 234,-538"/>
<text text-anchor="middle" x="207" y="-517.2" font-family="Times,serif" font-size="11.00">Router</text>
</g>
<!-- \\ErrorModel -->
<g id="node5" class="node"><title>\\ErrorModel</title>
<polygon fill="none" stroke="black" points="241,-484 173,-484 173,-448 241,-448 241,-484"/>
<text text-anchor="middle" x="207" y="-463.2" font-family="Times,serif" font-size="11.00">ErrorModel</text>
</g>
<!-- \\ErrorModel&#45;&gt;\\Model -->
<g id="edge1" class="edge"><title>\\ErrorModel&#45;&gt;\\Model</title>
<path fill="none" stroke="black" d="M172.772,-451.48C165.117,-447.727 157.132,-443.473 150,-439 123.398,-422.314 95.6429,-399.897 75.8133,-382.875"/>
<polygon fill="none" stroke="black" points="77.9391,-380.086 68.0921,-376.176 73.3517,-385.373 77.9391,-380.086"/>
</g>
<!-- \\FundraisersModel -->
<g id="node6" class="node"><title>\\FundraisersModel</title>
<polygon fill="none" stroke="black" points="255.5,-430 158.5,-430 158.5,-394 255.5,-394 255.5,-430"/>
<text text-anchor="middle" x="207" y="-409.2" font-family="Times,serif" font-size="11.00">FundraisersModel</text>
</g>
<!-- \\FundraisersModel&#45;&gt;\\Model -->
<g id="edge2" class="edge"><title>\\FundraisersModel&#45;&gt;\\Model</title>
<path fill="none" stroke="black" d="M158.166,-395.652C134.222,-387.468 105.728,-377.73 83.7184,-370.208"/>
<polygon fill="none" stroke="black" points="84.6961,-366.843 74.1016,-366.921 82.4322,-373.467 84.6961,-366.843"/>
</g>
<!-- \\EventsModel -->
<g id="node7" class="node"><title>\\EventsModel</title>
<polygon fill="none" stroke="black" points="244.5,-376 169.5,-376 169.5,-340 244.5,-340 244.5,-376"/>
<text text-anchor="middle" x="207" y="-355.2" font-family="Times,serif" font-size="11.00">EventsModel</text>
</g>
<!-- \\EventsModel&#45;&gt;\\Model -->
<g id="edge3" class="edge"><title>\\EventsModel&#45;&gt;\\Model</title>
<path fill="none" stroke="black" d="M169.354,-358C143.715,-358 109.626,-358 84.106,-358"/>
<polygon fill="none" stroke="black" points="84.0905,-354.5 74.0905,-358 84.0905,-361.5 84.0905,-354.5"/>
</g>
<!-- \\ActivitiesModel -->
<g id="node8" class="node"><title>\\ActivitiesModel</title>
<polygon fill="none" stroke="black" points="251.5,-322 162.5,-322 162.5,-286 251.5,-286 251.5,-322"/>
<text text-anchor="middle" x="207" y="-301.2" font-family="Times,serif" font-size="11.00">ActivitiesModel</text>
</g>
<!-- \\ActivitiesModel&#45;&gt;\\Model -->
<g id="edge4" class="edge"><title>\\ActivitiesModel&#45;&gt;\\Model</title>
<path fill="none" stroke="black" d="M162.408,-318.899C137.631,-327.367 106.996,-337.837 83.664,-345.811"/>
<polygon fill="none" stroke="black" points="82.4807,-342.517 74.15,-349.063 84.7446,-349.14 82.4807,-342.517"/>
</g>
<!-- \\CountriesModel -->
<g id="node9" class="node"><title>\\CountriesModel</title>
<polygon fill="none" stroke="black" points="251,-268 163,-268 163,-232 251,-232 251,-268"/>
<text text-anchor="middle" x="207" y="-247.2" font-family="Times,serif" font-size="11.00">CountriesModel</text>
</g>
<!-- \\CountriesModel&#45;&gt;\\Model -->
<g id="edge5" class="edge"><title>\\CountriesModel&#45;&gt;\\Model</title>
<path fill="none" stroke="black" d="M165.646,-268.118C160.284,-270.911 154.937,-273.903 150,-277 123.398,-293.686 95.6429,-316.103 75.8133,-333.125"/>
<polygon fill="none" stroke="black" points="73.3517,-330.627 68.0921,-339.824 77.9391,-335.914 73.3517,-330.627"/>
</g>
<!-- \\FundraisersController -->
<g id="node10" class="node"><title>\\FundraisersController</title>
<polygon fill="none" stroke="black" points="263.5,-214 150.5,-214 150.5,-178 263.5,-178 263.5,-214"/>
<text text-anchor="middle" x="207" y="-193.2" font-family="Times,serif" font-size="11.00">FundraisersController</text>
</g>
<!-- \\FundraisersController&#45;&gt;\\Controller -->
<g id="edge6" class="edge"><title>\\FundraisersController&#45;&gt;\\Controller</title>
<path fill="none" stroke="black" d="M152.949,-177.869C131.628,-170.582 107.471,-162.326 87.7125,-155.573"/>
<polygon fill="none" stroke="black" points="88.704,-152.213 78.1094,-152.291 86.4401,-158.837 88.704,-152.213"/>
</g>
<!-- \\IndexController -->
<g id="node11" class="node"><title>\\IndexController</title>
<polygon fill="none" stroke="black" points="250,-160 164,-160 164,-124 250,-124 250,-160"/>
<text text-anchor="middle" x="207" y="-139.2" font-family="Times,serif" font-size="11.00">IndexController</text>
</g>
<!-- \\IndexController&#45;&gt;\\Controller -->
<g id="edge7" class="edge"><title>\\IndexController&#45;&gt;\\Controller</title>
<path fill="none" stroke="black" d="M163.659,-142C140.354,-142 111.58,-142 88.5621,-142"/>
<polygon fill="none" stroke="black" points="88.4319,-138.5 78.4318,-142 88.4318,-145.5 88.4319,-138.5"/>
</g>
<!-- \\NotFoundController -->
<g id="node12" class="node"><title>\\NotFoundController</title>
<polygon fill="none" stroke="black" points="259.5,-106 154.5,-106 154.5,-70 259.5,-70 259.5,-106"/>
<text text-anchor="middle" x="207" y="-85.2" font-family="Times,serif" font-size="11.00">NotFoundController</text>
</g>
<!-- \\NotFoundController&#45;&gt;\\Controller -->
<g id="edge8" class="edge"><title>\\NotFoundController&#45;&gt;\\Controller</title>
<path fill="none" stroke="black" d="M154.265,-105.682C132.609,-113.083 107.837,-121.549 87.6618,-128.445"/>
<polygon fill="none" stroke="black" points="86.4911,-125.146 78.1604,-131.692 88.755,-131.77 86.4911,-125.146"/>
</g>
<!-- \\Config -->
<g id="node13" class="node"><title>\\Config</title>
<polygon fill="none" stroke="black" points="234,-52 180,-52 180,-16 234,-16 234,-52"/>
<text text-anchor="middle" x="207" y="-31.2" font-family="Times,serif" font-size="11.00">Config</text>
</g>
</g>
</svg>
